<?xml version="1.0" encoding="UTF-8"?>
<svg version="1.1" xmlns="http://www.w3.org/2000/svg" width="350" height="47">
<path d="M0 0 C115.5 0 231 0 350 0 C350 15.51 350 31.02 350 47 C234.5 47 119 47 0 47 C0 31.49 0 15.98 0 0 Z " fill="#FAFAFD" transform="translate(0,0)"/>
<path d="M0 0 C4.95 0 9.9 0 15 0 C15 1.98 15 3.96 15 6 C14.34 6 13.68 6 13 6 C13.99 10.62 14.98 15.24 16 20 C17.32 13.4 18.64 6.8 20 0 C23.63 0 27.26 0 31 0 C33.475 8.91 33.475 8.91 36 18 C37.485 12.06 37.485 12.06 39 6 C38.34 6 37.68 6 37 6 C37 4.02 37 2.04 37 0 C41.29 0 45.58 0 50 0 C50 1.98 50 3.96 50 6 C49.01 6 48.02 6 47 6 C46.90203125 6.680625 46.8040625 7.36125 46.703125 8.0625 C45.34548926 16.86372482 43.24965151 25.39453695 41 34 C36.71 34 32.42 34 28 34 C27.79503906 33.07316406 27.59007812 32.14632812 27.37890625 31.19140625 C27.10949219 29.99386719 26.84007812 28.79632813 26.5625 27.5625 C26.29566406 26.36753906 26.02882812 25.17257813 25.75390625 23.94140625 C25.29933252 21.1295314 25.29933252 21.1295314 24 20 C23.79503906 20.92683594 23.59007812 21.85367187 23.37890625 22.80859375 C23.10949219 24.00613281 22.84007812 25.20367188 22.5625 26.4375 C22.29566406 27.63246094 22.02882812 28.82742187 21.75390625 30.05859375 C21 33 21 33 20 34 C18.14712498 34.07226502 16.29166122 34.0838122 14.4375 34.0625 C13.42558594 34.05347656 12.41367188 34.04445312 11.37109375 34.03515625 C10.19740234 34.01775391 10.19740234 34.01775391 9 34 C6.86010842 29.30573334 5.90803864 24.46112865 4.875 19.4375 C4.69324219 18.58736328 4.51148438 17.73722656 4.32421875 16.86132812 C3.53879913 13.09662884 3 9.87704821 3 6 C2.01 6 1.02 6 0 6 C0 4.02 0 2.04 0 0 Z " fill="#7961CF" transform="translate(178,6)"/>
<path d="M0 0 C6.27 0 12.54 0 19 0 C20.33861983 4.10251122 21.67110396 8.20683977 23 12.3125 C23.3815625 13.47974609 23.763125 14.64699219 24.15625 15.84960938 C24.69765625 17.52700195 24.69765625 17.52700195 25.25 19.23828125 C25.58515625 20.26993408 25.9203125 21.30158691 26.265625 22.36450195 C27 25 27 25 27 28 C27.99 28 28.98 28 30 28 C30 29.98 30 31.96 30 34 C23.73 34 17.46 34 11 34 C11 32.02 11 30.04 11 28 C12.32 28 13.64 28 15 28 C15 26.68 15 25.36 15 24 C11.37 24 7.74 24 4 24 C3.67 25.32 3.34 26.64 3 28 C4.32 28 5.64 28 7 28 C7 29.98 7 31.96 7 34 C2.05 34 -2.9 34 -8 34 C-8 32.02 -8 30.04 -8 28 C-7.01 28 -6.02 28 -5 28 C-4.731875 26.72125 -4.46375 25.4425 -4.1875 24.125 C-3.26451277 19.88855501 -2.02014925 15.83963349 -0.5859375 11.75 C0.31258564 8.001553 0.31258564 8.001553 0 0 Z " fill="#1150B2" transform="translate(14,6)"/>
<path d="M0 0 C3.63 0 7.26 0 11 0 C11 10.23 11 20.46 11 31 C11.99 31 12.98 31 14 31 C14 32.98 14 34.96 14 37 C10.27109745 37.1164862 6.54266486 37.18734576 2.8125 37.25 C1.22985352 37.30027344 1.22985352 37.30027344 -0.38476562 37.3515625 C-8.24132356 37.45069888 -8.24132356 37.45069888 -12.15625 35.125 C-15.66750631 31.07812832 -16.46257769 27.37168546 -16.3203125 21.99609375 C-15.66646925 17.92153401 -13.41020475 15.0698105 -10.1875 12.625 C-6.45202434 11.55772124 -2.52479098 11.23760451 1 13 C1.33 10.69 1.66 8.38 2 6 C1.34 6 0.68 6 0 6 C0 4.02 0 2.04 0 0 Z " fill="#B56BE0" transform="translate(307,3)"/>
<path d="M0 0 C3.96 0 7.92 0 12 0 C12.33 4.62 12.66 9.24 13 14 C13.99 13.34 14.98 12.68 16 12 C23.02675159 11.33078556 23.02675159 11.33078556 26.23828125 13.5390625 C28.63469687 16.88660539 28.44403472 19.80213981 28.25 23.75 C28.23195312 24.44738281 28.21390625 25.14476563 28.1953125 25.86328125 C28.14838554 27.57611539 28.07664605 29.28823824 28 31 C28.99 31 29.98 31 31 31 C31 32.98 31 34.96 31 37 C26.71 37 22.42 37 18 37 C17.67 31.39 17.34 25.78 17 20 C15.68 20.33 14.36 20.66 13 21 C12.67 24.3 12.34 27.6 12 31 C13.32 31 14.64 31 16 31 C16 32.98 16 34.96 16 37 C10.72 37 5.44 37 0 37 C0 35.02 0 33.04 0 31 C0.66 31 1.32 31 2 31 C2 23.08 2 15.16 2 7 C1.34 7 0.68 7 0 7 C0 4.69 0 2.38 0 0 Z " fill="#625FC8" transform="translate(147,3)"/>
<path d="M0 0 C10.89 0 21.78 0 33 0 C33 3.96 33 7.92 33 12 C30.69 12 28.38 12 26 12 C26 10.02 26 8.04 26 6 C24.68 6 23.36 6 22 6 C22 12.93 22 19.86 22 27 C23.32 27 24.64 27 26 27 C26 29.31 26 31.62 26 34 C20.06 34 14.12 34 8 34 C8 32.02 8 30.04 8 28 C9.32 28 10.64 28 12 28 C12 20.74 12 13.48 12 6 C10.35 6 8.7 6 7 6 C7 7.98 7 9.96 7 12 C4.69 12 2.38 12 0 12 C0 8.04 0 4.08 0 0 Z " fill="#2F54BA" transform="translate(61,6)"/>
<path d="M0 0 C3.12239535 2.05794239 4.87258492 3.56312775 6.75 6.8125 C7.3621408 12.32176724 7.10653945 16.19725826 3.75 20.8125 C0.29896211 23.26555563 -3.10072953 24.59701179 -7.25 25.375 C-11.52806286 24.57286321 -14.94641912 22.63988904 -18.25 19.8125 C-20.86370272 15.70162777 -21.06178375 11.54380531 -20.25 6.8125 C-18.58797623 3.68047912 -16.26036237 1.5789818 -13.4375 -0.5625 C-8.63065912 -1.93588311 -4.6064147 -1.68311307 0 0 Z " fill="#9066D5" transform="translate(248.25,16.1875)"/>
<path d="M0 0 C3.23771733 1.47808835 5.74784523 3.24382192 8 6 C8.39500857 9.04946616 8.13430156 11.91106412 8 15 C2.72 15 -2.56 15 -8 15 C-7.01 16.485 -7.01 16.485 -6 18 C-2.14880946 18.28527337 1.30992118 18.18082522 5 17 C5.99 18.65 6.98 20.3 8 22 C2.28457024 25.45933906 -1.26975079 26.81578778 -8 26 C-12.38299083 23.80850458 -15.20074724 21.59809038 -17 17 C-17.65412467 12.10617837 -17.77298996 8.32512564 -15.25 4 C-10.49397139 -0.22758099 -6.1917248 -0.73104443 0 0 Z " fill="#4359C0" transform="translate(112,15)"/>
<path d="M0 0 C2.9375 1.5 2.9375 1.5 5 3 C5 2.01 5 1.02 5 0 C6.98 0 8.96 0 11 0 C11 2.97 11 5.94 11 9 C8.69 9 6.38 9 4 9 C3.67 8.34 3.34 7.68 3 7 C-0.02934491 6.34227572 -0.02934491 6.34227572 -3 6 C-1.34371654 9.31256692 2.19949881 9.69428018 5.5546875 10.90234375 C8.01117499 12.00501625 9.35825802 12.88539383 11 15 C11.53180853 18.57071442 11.47462614 20.29755331 9.4375 23.3125 C6.18564653 25.56378317 3.94537482 25.9319763 0 26 C-3.4375 24.5625 -3.4375 24.5625 -6 23 C-6 23.66 -6 24.32 -6 25 C-7.98 25 -9.96 25 -12 25 C-12 22.03 -12 19.06 -12 16 C-9.69 16 -7.38 16 -5 16 C-4.67 16.66 -4.34 17.32 -4 18 C-0.97065509 18.65772428 -0.97065509 18.65772428 2 19 C1.19660691 16.82305062 1.19660691 16.82305062 -0.92578125 16.2890625 C-1.71339844 16.06992187 -2.50101562 15.85078125 -3.3125 15.625 C-9.84951456 13.51897617 -9.84951456 13.51897617 -12 10 C-12 6.24656317 -11.82004247 3.97774294 -9.375 1.0625 C-6.04422241 -0.42758471 -3.61410271 -0.38043186 0 0 Z " fill="#C671E5" transform="translate(334,15)"/>
<path d="M0 0 C0.33 -0.33 0.66 -0.66 1 -1 C2.98 -1 4.96 -1 7 -1 C7 2.96 7 6.92 7 11 C4.36 11 1.72 11 -1 11 C-1.66 9.35 -2.32 7.7 -3 6 C-4.32 6 -5.64 6 -7 6 C-7.02689216 7.47906892 -7.04634621 8.95827483 -7.0625 10.4375 C-7.07410156 11.26121094 -7.08570313 12.08492187 -7.09765625 12.93359375 C-7.23267348 14.99163938 -7.23267348 14.99163938 -6 16 C-3.66706666 16.04320247 -1.3329866 16.04022391 1 16 C1.99 16 2.98 16 4 16 C5.6875 18 5.6875 18 7 20 C2.25180349 23.77420748 -1.86816841 25.29670153 -8 25 C-11.66836877 23.6413449 -14.55314886 22.09075933 -17 19 C-18.45149845 14.64550465 -18.6423951 10.54618074 -18 6 C-14.07488136 -1.57744912 -7.56734972 -1.96190548 0 0 Z " fill="#555FC5" transform="translate(139,16)"/>
<path d="M0 0 C3.63 0 7.26 0 11 0 C11 10.23 11 20.46 11 31 C11.99 31 12.98 31 14 31 C14 32.98 14 34.96 14 37 C9.38 37 4.76 37 0 37 C0 35.02 0 33.04 0 31 C0.66 31 1.32 31 2 31 C2 22.75 2 14.5 2 6 C1.34 6 0.68 6 0 6 C0 4.02 0 2.04 0 0 Z " fill="#A769DC" transform="translate(276,3)"/>
<path d="M0 0 C0 2.97 0 5.94 0 9 C-1.98 9.66 -3.96 10.32 -6 11 C-6.33 13.97 -6.66 16.94 -7 20 C-6.34 20 -5.68 20 -5 20 C-5 21.98 -5 23.96 -5 26 C-9.62 26 -14.24 26 -19 26 C-19 24.02 -19 22.04 -19 20 C-18.34 20 -17.68 20 -17 20 C-17 16.04 -17 12.08 -17 8 C-17.66 8 -18.32 8 -19 8 C-19 5.69 -19 3.38 -19 1 C-15.7 1 -12.4 1 -9 1 C-9 1.99 -9 2.98 -9 4 C-8.34 4 -7.68 4 -7 4 C-6.67 3.01 -6.34 2.02 -6 1 C-4 0 -4 0 0 0 Z " fill="#A06DDA" transform="translate(275,14)"/>
<path d="M0 0 C3.63 0 7.26 0 11 0 C11 5.94 11 11.88 11 18 C11.99 18 12.98 18 14 18 C14 19.98 14 21.96 14 24 C9.38 24 4.76 24 0 24 C0 22.02 0 20.04 0 18 C0.66 18 1.32 18 2 18 C2 14.04 2 10.08 2 6 C1.34 6 0.68 6 0 6 C0 4.02 0 2.04 0 0 Z " fill="#2152B6" transform="translate(46,16)"/>
<path d="M0 0 C2.4375 0.75 2.4375 0.75 4.4375 2.75 C4.6875 5.25 4.6875 5.25 4.4375 7.75 C2.4375 9.75 2.4375 9.75 -0.5625 10 C-3.5625 9.75 -3.5625 9.75 -5.5625 7.75 C-5.875 4.75 -5.875 4.75 -5.5625 1.75 C-2.5625 -0.25 -2.5625 -0.25 0 0 Z " fill="#2756B8" transform="translate(53.5625,3.25)"/>
<path d="M0 0 C1.9375 0.375 1.9375 0.375 4 1 C5.11445498 3.22890995 5.16480286 4.53055106 5.1875 7 C5.20167969 7.70125 5.21585938 8.4025 5.23046875 9.125 C5 11 5 11 3 13 C0.9375 12.75 0.9375 12.75 -1 12 C-2.50934217 8.98131566 -2.17510672 6.32702771 -2 3 C-1.34 2.01 -0.68 1.02 0 0 Z " fill="#F6F2FB" transform="translate(240,21)"/>
<path d="M0 0 C1.32 0.66 2.64 1.32 4 2 C4 4.97 4 7.94 4 11 C2.34385343 11.38218767 0.67542976 11.71395102 -1 12 C-2.58894072 10.41105928 -2.16998411 8.75198576 -2.1875 6.5625 C-2.20167969 5.75941406 -2.21585937 4.95632812 -2.23046875 4.12890625 C-2 2 -2 2 0 0 Z " fill="#FBF8FD" transform="translate(304,21)"/>
<path d="M0 0 C0.33 0 0.66 0 1 0 C1 2.31 1 4.62 1 7 C0.05125 7.12375 -0.8975 7.2475 -1.875 7.375 C-5.08667191 7.71687177 -5.08667191 7.71687177 -7 10 C-10.625 10.125 -10.625 10.125 -14 10 C-14.66 8.68 -15.32 7.36 -16 6 C-10.72 6 -5.44 6 0 6 C0 4.02 0 2.04 0 0 Z " fill="#E8EBF7" transform="translate(120,24)"/>
<path d="M0 0 C3.00617269 3.00617269 2.59585316 5.82381598 3 10 C1.35 10 -0.3 10 -2 10 C-1.125 2.25 -1.125 2.25 0 0 Z " fill="#F4F7FB" transform="translate(23,14)"/>
<path d="M0 0 C0 0.99 0 1.98 0 3 C-1.98 3 -3.96 3 -6 3 C-6 2.01 -6 1.02 -6 0 C-3.50907189 -1.24546405 -2.58919267 -0.7767578 0 0 Z " fill="#EDEFF9" transform="translate(111,22)"/>
<path d="M0 0 C0.66 0.66 1.32 1.32 2 2 C1.68134222 5.29279709 0.45484649 6.86535088 -2 9 C-1.125 2.25 -1.125 2.25 0 0 Z " fill="#C5D4EC" transform="translate(23,14)"/>
</svg>
