<?xml version="1.0" encoding="UTF-8"?>
<svg version="1.1" xmlns="http://www.w3.org/2000/svg" width="202" height="31">
<path d="M0 0 C66.66 0 133.32 0 202 0 C202 10.23 202 20.46 202 31 C135.34 31 68.68 31 0 31 C0 20.77 0 10.54 0 0 Z " fill="#FAFAFD" transform="translate(0,0)"/>
<path d="M0 0 C3.3 0 6.6 0 10 0 C10 1.32 10 2.64 10 4 C9.34 4 8.68 4 8 4 C8.66 5.65 9.32 7.3 10 9 C10.66 6.03 11.32 3.06 12 0 C14.31 0 16.62 0 19 0 C19.66 2.64 20.32 5.28 21 8 C21.66 6.68 22.32 5.36 23 4 C22.34 4 21.68 4 21 4 C21 2.68 21 1.36 21 0 C23.97 0 26.94 0 30 0 C30 1.32 30 2.64 30 4 C29.01 4.495 29.01 4.495 28 5 C27.20058692 7.52369457 26.5063892 9.99718906 25.875 12.5625 C25.69324219 13.27341797 25.51148437 13.98433594 25.32421875 14.71679688 C24.87555535 16.47602969 24.43684043 18.23779417 24 20 C21.69 20 19.38 20 17 20 C16.34 17.69 15.68 15.38 15 13 C14.34 15.31 13.68 17.62 13 20 C10.36 20 7.72 20 5 20 C4.49411853 18.08487728 3.99551609 16.16783078 3.5 14.25 C3.2215625 13.18265625 2.943125 12.1153125 2.65625 11.015625 C2 8 2 8 2 4 C1.34 4 0.68 4 0 4 C0 2.68 0 1.36 0 0 Z " fill="#7D66D0" transform="translate(100,6)"/>
<path d="M0 0 C2.31 0 4.62 0 7 0 C7 5.61 7 11.22 7 17 C8.98 16.67 10.96 16.34 13 16 C15.375 16.9375 15.375 16.9375 17 18 C17 17.34 17 16.68 17 16 C16.236875 15.896875 15.47375 15.79375 14.6875 15.6875 C11.80299352 14.94960299 10.64504011 14.46756016 9 12 C9.25146579 9.86254078 9.45925779 8.54074221 11 7 C13.01964199 6.92755947 15.04167124 6.91622812 17.0625 6.9375 C18.16722656 6.94652344 19.27195313 6.95554687 20.41015625 6.96484375 C21.26480469 6.97644531 22.11945313 6.98804688 23 7 C23 8.65 23 10.3 23 12 C20.23723823 11.47731534 17.6739124 10.89130413 15 10 C15 10.66 15 11.32 15 12 C15.94875 12.12375 16.8975 12.2475 17.875 12.375 C21 13 21 13 23 15 C22.44444444 19.55555556 22.44444444 19.55555556 21 21 C16.71508535 21.28150942 12.41805904 21.23182832 8.125 21.25 C6.30935547 21.2809375 6.30935547 21.2809375 4.45703125 21.3125 C3.29816406 21.31765625 2.13929688 21.3228125 0.9453125 21.328125 C-0.12187012 21.3374707 -1.18905273 21.34681641 -2.28857422 21.35644531 C-5 21 -5 21 -6.84667969 19.61645508 C-8.37500505 17.4744055 -8.40082251 16.04987716 -8.375 13.4375 C-8.38273438 12.65246094 -8.39046875 11.86742187 -8.3984375 11.05859375 C-8.26695312 10.37925781 -8.13546875 9.69992187 -8 9 C-4.5647952 6.70986347 -3.014669 6.82157027 1 7 C0.67 4.69 0.34 2.38 0 0 Z " fill="#B66DE0" transform="translate(174,5)"/>
<path d="M0 0 C3.63 0 7.26 0 11 0 C12.79605308 5.30652047 14.50660362 10.6007977 16 16 C17.32 16 18.64 16 20 16 C19.505 11.05 19.505 11.05 19 6 C20.98 6 22.96 6 25 6 C25 9.3 25 12.6 25 16 C25.66 16 26.32 16 27 16 C27 17.32 27 18.64 27 20 C20.07 20 13.14 20 6 20 C6 18.68 6 17.36 6 16 C6.99 16 7.98 16 9 16 C9 15.34 9 14.68 9 14 C7.02 14 5.04 14 3 14 C3 14.66 3 15.32 3 16 C3.66 16 4.32 16 5 16 C5 17.32 5 18.64 5 20 C1.7 20 -1.6 20 -5 20 C-5 18.68 -5 17.36 -5 16 C-4.01 16 -3.02 16 -2 16 C-1.7834375 14.2675 -1.7834375 14.2675 -1.5625 12.5 C-1.04166667 8.33333333 -0.52083333 4.16666667 0 0 Z " fill="#2059B6" transform="translate(6,6)"/>
<path d="M0 0 C0.99 0.66 1.98 1.32 3 2 C3.99 1.34 4.98 0.68 6 0 C8.69921875 -0.1953125 8.69921875 -0.1953125 11.6875 -0.125 C13.17830078 -0.09792969 13.17830078 -0.09792969 14.69921875 -0.0703125 C15.45847656 -0.04710937 16.21773437 -0.02390625 17 0 C17 1.98 17 3.96 17 6 C15.35 6 13.7 6 12 6 C12 5.01 12 4.02 12 3 C11.01 3.495 11.01 3.495 10 4 C10 5.65 10 7.3 10 9 C11.98 9 13.96 9 16 9 C16.33 9.99 16.66 10.98 17 12 C14.58513057 14.41486943 13.87292211 14.2961925 10.5625 14.3125 C9.38880859 14.33763672 9.38880859 14.33763672 8.19140625 14.36328125 C5.48861203 13.91522445 4.59994393 13.19670758 3 11 C3 10.01 3 9.02 3 8 C0.03 8 -2.94 8 -6 8 C-5.67 8.66 -5.34 9.32 -5 10 C-3.02 10 -1.04 10 1 10 C1.33 10.99 1.66 11.98 2 13 C-0.32686453 14.16343227 -1.84721413 14.19895988 -4.4375 14.25 C-5.21996094 14.27578125 -6.00242187 14.3015625 -6.80859375 14.328125 C-9 14 -9 14 -10.75390625 12.73046875 C-12.52400406 10.27230784 -12.53588253 7.90807961 -12.41015625 4.9453125 C-12 3 -12 3 -9.9375 0.4375 C-6.12680162 -1.42730984 -4.0587462 -1.05226753 0 0 Z " fill="#5161C4" transform="translate(65,12)"/>
<path d="M0 0 C0.99 0 1.98 0 3 0 C3 1.65 3 3.3 3 5 C1.68 5.33 0.36 5.66 -1 6 C-0.67 8.97 -0.34 11.94 0 15 C-2.64 15 -5.28 15 -8 15 C-8.33 14.34 -8.66 13.68 -9 13 C-9.99 13.66 -10.98 14.32 -12 15 C-17.11675127 15.56852792 -17.11675127 15.56852792 -20 15 C-22.76386182 12.5816209 -23.79835577 11.03342666 -24.5 7.4375 C-23.80243877 4.03688899 -22.88228706 2.94554377 -20 1 C-15.93332227 0.17499776 -13.00205058 0.34866712 -9.5 2.625 C-7.62043164 5.60098323 -7.68575493 7.54330418 -8 11 C-7.34 11 -6.68 11 -6 11 C-6.66 7.7 -7.32 4.4 -8 1 C-6.865625 1.020625 -5.73125 1.04125 -4.5625 1.0625 C-1.18424326 1.41577477 -1.18424326 1.41577477 0 0 Z " fill="#9668D7" transform="translate(153,11)"/>
<path d="M0 0 C2.31 0 4.62 0 7 0 C7.33 2.31 7.66 4.62 8 7 C8.763125 6.79375 9.52625 6.5875 10.3125 6.375 C13 6 13 6 16 8 C16.29296875 10.1640625 16.29296875 10.1640625 16.1875 12.625 C16.16042969 13.44226562 16.13335937 14.25953125 16.10546875 15.1015625 C16.07066406 15.72804688 16.03585938 16.35453125 16 17 C16.66 17 17.32 17 18 17 C18 18.32 18 19.64 18 21 C15.36 21 12.72 21 10 21 C10 17.7 10 14.4 10 11 C9.01 11 8.02 11 7 11 C7 12.98 7 14.96 7 17 C7.66 17 8.32 17 9 17 C9 18.32 9 19.64 9 21 C6.03 21 3.06 21 0 21 C0 14.07 0 7.14 0 0 Z " fill="#6360C9" transform="translate(83,5)"/>
<path d="M0 0 C6.6 0 13.2 0 20 0 C20 2.64 20 5.28 20 8 C18.35 8 16.7 8 15 8 C15 6.68 15 5.36 15 4 C14.34 4 13.68 4 13 4 C13 7.96 13 11.92 13 16 C13.66 16 14.32 16 15 16 C15 17.32 15 18.64 15 20 C11.7 20 8.4 20 5 20 C5 18.68 5 17.36 5 16 C5.66 16 6.32 16 7 16 C7 12.04 7 8.08 7 4 C6.34 4 5.68 4 5 4 C5 5.32 5 6.64 5 8 C3.35 8 1.7 8 0 8 C0 5.36 0 2.72 0 0 Z " fill="#3A5DBE" transform="translate(33,6)"/>
<path d="M0 0 C1.65322266 0.01740234 1.65322266 0.01740234 3.33984375 0.03515625 C4.99693359 0.04869141 4.99693359 0.04869141 6.6875 0.0625 C7.54214844 0.07410156 8.39679688 0.08570313 9.27734375 0.09765625 C9.27734375 1.74765625 9.27734375 3.39765625 9.27734375 5.09765625 C6.51458198 4.57497159 3.95125615 3.98896038 1.27734375 3.09765625 C1.27734375 3.75765625 1.27734375 4.41765625 1.27734375 5.09765625 C2.70046875 5.28328125 2.70046875 5.28328125 4.15234375 5.47265625 C7.27734375 6.09765625 7.27734375 6.09765625 9.27734375 8.09765625 C8.72178819 12.65321181 8.72178819 12.65321181 7.27734375 14.09765625 C5.09094922 14.17024571 2.90233986 14.18139408 0.71484375 14.16015625 C-1.08146484 14.14662109 -1.08146484 14.14662109 -2.9140625 14.1328125 C-3.84089844 14.12121094 -4.76773438 14.10960937 -5.72265625 14.09765625 C-5.39265625 12.44765625 -5.06265625 10.79765625 -4.72265625 9.09765625 C1.02734375 9.97265625 1.02734375 9.97265625 3.27734375 11.09765625 C3.27734375 10.43765625 3.27734375 9.77765625 3.27734375 9.09765625 C2.51421875 8.99453125 1.75109375 8.89140625 0.96484375 8.78515625 C-1.91966273 8.04725924 -3.07761614 7.56521641 -4.72265625 5.09765625 C-4.28285706 1.35936311 -3.87724715 0.13906912 0 0 Z " fill="#C875E6" transform="translate(187.72265625,11.90234375)"/>
<path d="M0 0 C2.31 0 4.62 0 7 0 C7.33 6.93 7.66 13.86 8 21 C5.36 21 2.72 21 0 21 C0 14.07 0 7.14 0 0 Z " fill="#AB6EDD" transform="translate(157,5)"/>
<path d="M0 0 C0.33 0 0.66 0 1 0 C0.979375 0.81984375 0.95875 1.6396875 0.9375 2.484375 C1.00145304 5.82592115 1.16801327 8.75826932 2 12 C4.41588349 14.20647287 6.85947624 15.17015773 10 16 C10 16.66 10 17.32 10 18 C6.7 17.67 3.4 17.34 0 17 C0 11.39 0 5.78 0 0 Z " fill="#ECD5F6" transform="translate(181,5)"/>
<path d="M0 0 C1.2065625 0.0309375 1.2065625 0.0309375 2.4375 0.0625 C3 2 3 2 3.4375 4.0625 C2.4375 5.0625 2.4375 5.0625 -0.125 5.125 C-1.3315625 5.0940625 -1.3315625 5.0940625 -2.5625 5.0625 C-3.125 3.125 -3.125 3.125 -3.5625 1.0625 C-2.5625 0.0625 -2.5625 0.0625 0 0 Z " fill="#3864BE" transform="translate(28.5625,4.9375)"/>
<path d="M0 0 C0.99 0.33 1.98 0.66 3 1 C3 2.98 3 4.96 3 7 C2.01 7.33 1.02 7.66 0 8 C-0.38063221 5.6739143 -0.71269945 3.33944736 -1 1 C-0.67 0.67 -0.34 0.34 0 0 Z " fill="#E8DFF6" transform="translate(136,15)"/>
<path d="M0 0 C0.99 0 1.98 0 3 0 C3 3.3 3 6.6 3 10 C2.67 8.68 2.34 7.36 2 6 C1.34 6 0.68 6 0 6 C0 4.02 0 2.04 0 0 Z " fill="#EFEFF9" transform="translate(90,16)"/>
<path d="M0 0 C2.97 0 5.94 0 9 0 C6.4345406 2.5654594 4.52313332 2.54046087 1 3 C0.67 2.01 0.34 1.02 0 0 Z " fill="#CBD1ED" transform="translate(59,20)"/>
<path d="M0 0 C0.66 0.33 1.32 0.66 2 1 C2 2.98 2 4.96 2 7 C1.01 7 0.02 7 -1 7 C-1.04254356 5.00045254 -1.04080783 2.99958364 -1 1 C-0.67 0.67 -0.34 0.34 0 0 Z " fill="#F8F2FC" transform="translate(173,15)"/>
</svg>
